<svg xmlns="http://www.w3.org/2000/svg" xmlns:xlink="http://www.w3.org/1999/xlink" width="1920" zoomAndPan="magnify" viewBox="0 0 1440 809.999993" height="1080" preserveAspectRatio="xMidYMid meet" version="1.0"><defs><clipPath id="97ac4cc350"><path d="M 606.375 286.875 L 834 286.875 L 834 514.5 L 606.375 514.5 Z M 606.375 286.875 " clip-rule="nonzero"/></clipPath><clipPath id="77158aa7b6"><path d="M 720.1875 286.875 C 657.332031 286.875 606.375 337.832031 606.375 400.6875 C 606.375 463.542969 657.332031 514.5 720.1875 514.5 C 783.042969 514.5 834 463.542969 834 400.6875 C 834 337.832031 783.042969 286.875 720.1875 286.875 Z M 720.1875 286.875 " clip-rule="nonzero"/></clipPath><clipPath id="53fd0af0c3"><path d="M 712.988281 268.515625 L 727.386719 268.515625 L 727.386719 542.117188 L 712.988281 542.117188 Z M 712.988281 268.515625 " clip-rule="nonzero"/></clipPath><clipPath id="12d00a9ad3"><path d="M 583.382812 393.492188 L 856.980469 393.492188 L 856.980469 407.890625 L 583.382812 407.890625 Z M 583.382812 393.492188 " clip-rule="nonzero"/></clipPath><clipPath id="725780c243"><path d="M 624.75 305.25 L 815.625 305.25 L 815.625 496.125 L 624.75 496.125 Z M 624.75 305.25 " clip-rule="nonzero"/></clipPath><clipPath id="1fffac01fd"><path d="M 720.1875 305.25 C 667.480469 305.25 624.75 347.980469 624.75 400.6875 C 624.75 453.394531 667.480469 496.125 720.1875 496.125 C 772.894531 496.125 815.625 453.394531 815.625 400.6875 C 815.625 347.980469 772.894531 305.25 720.1875 305.25 Z M 720.1875 305.25 " clip-rule="nonzero"/></clipPath><clipPath id="9eac845863"><path d="M 660.964844 405.519531 L 707.992188 405.519531 L 707.992188 455.855469 L 660.964844 455.855469 Z M 660.964844 405.519531 " clip-rule="nonzero"/></clipPath><clipPath id="7794c84189"><path d="M 684.480469 405.519531 C 671.492188 405.519531 660.964844 416.777344 660.964844 430.664062 C 660.964844 444.546875 671.492188 455.804688 684.480469 455.804688 C 697.464844 455.804688 707.992188 444.546875 707.992188 430.664062 C 707.992188 416.777344 697.464844 405.519531 684.480469 405.519531 Z M 684.480469 405.519531 " clip-rule="nonzero"/></clipPath><clipPath id="1c3fb3ec84"><path d="M 673.878906 345.570312 L 728.429688 345.570312 L 728.429688 359.464844 L 673.878906 359.464844 Z M 673.878906 345.570312 " clip-rule="nonzero"/></clipPath><clipPath id="708558d7c8"><path d="M 732.886719 345.570312 L 752.191406 345.570312 L 752.191406 359.464844 L 732.886719 359.464844 Z M 732.886719 345.570312 " clip-rule="nonzero"/></clipPath><clipPath id="2613c734f1"><path d="M 694.316406 359.464844 L 707.992188 359.464844 L 707.992188 428.289062 L 694.316406 428.289062 Z M 694.316406 359.464844 " clip-rule="nonzero"/></clipPath><clipPath id="a417f6fe2b"><path d="M 716.328125 345.570312 L 788.050781 345.570312 L 788.050781 430.746094 L 716.328125 430.746094 Z M 716.328125 345.570312 " clip-rule="nonzero"/></clipPath><clipPath id="12abdf4026"><path d="M 752.191406 345.570312 C 732.382812 345.570312 716.328125 364.617188 716.328125 388.117188 C 716.328125 411.613281 732.382812 430.664062 752.191406 430.664062 C 771.996094 430.664062 788.050781 411.613281 788.050781 388.117188 C 788.050781 364.617188 771.996094 345.570312 752.191406 345.570312 Z M 752.191406 345.570312 " clip-rule="nonzero"/></clipPath><clipPath id="7b2257b6f2"><path d="M 728.429688 416.769531 L 747.730469 416.769531 L 747.730469 430.664062 L 728.429688 430.664062 Z M 728.429688 416.769531 " clip-rule="nonzero"/></clipPath><clipPath id="2b1a4bdf8d"><path d="M 657 393.878906 L 694.316406 393.878906 L 694.316406 430.664062 L 657 430.664062 Z M 657 393.878906 " clip-rule="nonzero"/></clipPath><clipPath id="365827c251"><path d="M 652.324219 405.519531 L 694.316406 405.519531 L 694.316406 447.515625 L 652.324219 447.515625 Z M 652.324219 405.519531 " clip-rule="nonzero"/></clipPath><clipPath id="71f9099813"><path d="M 673.320312 405.519531 C 661.722656 405.519531 652.324219 414.921875 652.324219 426.519531 C 652.324219 438.113281 661.722656 447.515625 673.320312 447.515625 C 684.914062 447.515625 694.316406 438.113281 694.316406 426.519531 C 694.316406 414.921875 684.914062 405.519531 673.320312 405.519531 Z M 673.320312 405.519531 " clip-rule="nonzero"/></clipPath><clipPath id="0aec32ee8a"><path d="M 728.429688 345.570312 L 734.25 345.570312 L 734.25 382.355469 L 728.429688 382.355469 Z M 728.429688 345.570312 " clip-rule="nonzero"/></clipPath><clipPath id="c4bfe0792b"><path d="M 715.304688 359.464844 L 747.730469 359.464844 L 747.730469 419.527344 L 715.304688 419.527344 Z M 715.304688 359.464844 " clip-rule="nonzero"/></clipPath><clipPath id="3074a780be"><path d="M 716.328125 359.464844 L 776.390625 359.464844 L 776.390625 419.527344 L 716.328125 419.527344 Z M 716.328125 359.464844 " clip-rule="nonzero"/></clipPath><clipPath id="78280d7442"><path d="M 746.359375 359.464844 C 729.773438 359.464844 716.328125 372.910156 716.328125 389.496094 C 716.328125 406.082031 729.773438 419.527344 746.359375 419.527344 C 762.945312 419.527344 776.390625 406.082031 776.390625 389.496094 C 776.390625 372.910156 762.945312 359.464844 746.359375 359.464844 Z M 746.359375 359.464844 " clip-rule="nonzero"/></clipPath></defs><g clip-path="url(#97ac4cc350)"><g clip-path="url(#77158aa7b6)"><path fill="#000000" d="M 606.375 286.875 L 834 286.875 L 834 514.5 L 606.375 514.5 Z M 606.375 286.875 " fill-opacity="1" fill-rule="nonzero"/></g></g><g clip-path="url(#53fd0af0c3)"><path fill="#ffffff" d="M 712.988281 268.515625 L 727.386719 268.515625 L 727.386719 542.117188 L 712.988281 542.117188 Z M 712.988281 268.515625 " fill-opacity="1" fill-rule="nonzero"/></g><g clip-path="url(#12d00a9ad3)"><path fill="#ffffff" d="M 856.980469 393.492188 L 856.980469 407.890625 L 583.382812 407.890625 L 583.382812 393.492188 Z M 856.980469 393.492188 " fill-opacity="1" fill-rule="nonzero"/></g><g clip-path="url(#725780c243)"><g clip-path="url(#1fffac01fd)"><path fill="#ffffff" d="M 624.75 305.25 L 815.625 305.25 L 815.625 496.125 L 624.75 496.125 Z M 624.75 305.25 " fill-opacity="1" fill-rule="nonzero"/></g></g><g clip-path="url(#9eac845863)"><g clip-path="url(#7794c84189)"><path fill="#000000" d="M 660.964844 405.519531 L 707.992188 405.519531 L 707.992188 455.855469 L 660.964844 455.855469 Z M 660.964844 405.519531 " fill-opacity="1" fill-rule="nonzero"/></g></g><g clip-path="url(#1c3fb3ec84)"><path fill="#000000" d="M 673.878906 345.570312 L 728.425781 345.570312 L 728.425781 359.464844 L 673.878906 359.464844 Z M 673.878906 345.570312 " fill-opacity="1" fill-rule="nonzero"/></g><g clip-path="url(#708558d7c8)"><path fill="#000000" d="M 732.886719 345.570312 L 752.210938 345.570312 L 752.210938 359.464844 L 732.886719 359.464844 Z M 732.886719 345.570312 " fill-opacity="1" fill-rule="nonzero"/></g><g clip-path="url(#2613c734f1)"><path fill="#000000" d="M 694.316406 359.464844 L 707.992188 359.464844 L 707.992188 428.28125 L 694.316406 428.28125 Z M 694.316406 359.464844 " fill-opacity="1" fill-rule="nonzero"/></g><g clip-path="url(#a417f6fe2b)"><g clip-path="url(#12abdf4026)"><path fill="#000000" d="M 716.328125 345.570312 L 788.050781 345.570312 L 788.050781 430.746094 L 716.328125 430.746094 Z M 716.328125 345.570312 " fill-opacity="1" fill-rule="nonzero"/></g></g><g clip-path="url(#7b2257b6f2)"><path fill="#000000" d="M 728.429688 416.769531 L 747.753906 416.769531 L 747.753906 430.664062 L 728.429688 430.664062 Z M 728.429688 416.769531 " fill-opacity="1" fill-rule="nonzero"/></g><g clip-path="url(#2b1a4bdf8d)"><path fill="#ffffff" d="M 657 393.878906 L 694.363281 393.878906 L 694.363281 430.664062 L 657 430.664062 Z M 657 393.878906 " fill-opacity="1" fill-rule="nonzero"/></g><g clip-path="url(#365827c251)"><g clip-path="url(#71f9099813)"><path fill="#ffffff" d="M 652.324219 405.519531 L 694.316406 405.519531 L 694.316406 447.515625 L 652.324219 447.515625 Z M 652.324219 405.519531 " fill-opacity="1" fill-rule="nonzero"/></g></g><g clip-path="url(#0aec32ee8a)"><path fill="#ffffff" d="M 728.429688 345.570312 L 734.25 345.570312 L 734.25 382.351562 L 728.429688 382.351562 Z M 728.429688 345.570312 " fill-opacity="1" fill-rule="nonzero"/></g><g clip-path="url(#c4bfe0792b)"><path fill="#ffffff" d="M 715.304688 359.464844 L 747.730469 359.464844 L 747.730469 419.507812 L 715.304688 419.507812 Z M 715.304688 359.464844 " fill-opacity="1" fill-rule="nonzero"/></g><g clip-path="url(#3074a780be)"><g clip-path="url(#78280d7442)"><path fill="#ffffff" d="M 716.328125 359.464844 L 776.390625 359.464844 L 776.390625 419.527344 L 716.328125 419.527344 Z M 716.328125 359.464844 " fill-opacity="1" fill-rule="nonzero"/></g></g></svg>